# xmcd
#
# Track frame offsets: 
#        150
#        20056
#        37670
#        57203
#        73011
#        91429
#        112917
#        132533
#        153683
#        179658
#        200713
#        222874
#
# Disc length: 3133 seconds
#
# Revision: 5
# Processed by: cddbd v1.5.2PL0 Copyright (c) Steve Scherf et al.
# Submitted via: ExactAudioCopy v1.3
#
DISCID=b10c3b0c
DTITLE=Francis Cabrel - Hors-saison
DYEAR=1999
DGENRE=Chanson Française
TTITLE0=Le monde est sourd
TTITLE1=Cent ans de plus
TTITLE2=Presque rien
TTITLE3=Le reste du temps
TTITLE4=Rien de nouveau
TTITLE5=Loin devant
TTITLE6=Depuis toujours
TTITLE7=Comme eux
TTITLE8=Hell nep avenue
TTITLE9=Hors-saison
TTITLE10=La belle Debbie
TTITLE11=Madame X
EXTD=Paroles et musiques Francis Cabrel sauf "Depuis tourours"  - "I'v
EXTD=e been lovin' you too long" (Otis Redding - Jerry Butler) addapt.
EXTD=francaise F. Cabrel. ID3G: 0
EXTT0=
EXTT1=
EXTT2=
EXTT3=
EXTT4=
EXTT5=
EXTT6=
EXTT7=
EXTT8=
EXTT9=
EXTT10=
EXTT11=
PLAYORDER=
